<?xml version="1.0"?>
<svg version="1.1" xmlns="http://www.w3.org/2000/svg" width="72px" height="36px" style=""><path fill="#fb9900" d="M0,13.90869140625q0-0.1435546875,0.199951171875-0.220458984375t0.261474609375-0.076904296875l0.37939453125-0.0615234375q0.37939453125-0.0615234375,0.76904296875-0.107666015625t0.7587890625-0.087158203125q1.30224609375-0.1640625,2.6044921875-0.322998046875t2.625-0.158935546875q0.1025390625,0,0.281982421875,0.01025390625t0.35888671875,0.056396484375t0.3076171875,0.128173828125t0.128173828125,0.2255859375q0,0.1025390625-0.097412109375,0.179443359375t-0.230712890625,0.117919921875t-0.271728515625,0.05126953125t-0.220458984375,0.01025390625l-0.179443359375,0t-0.179443359375-0.041015625q-0.54345703125,0-1.071533203125,0.05126953125t-1.071533203125,0.09228515625q0.1435546875,0.1640625,0.15380859375,0.46142578125t0.0205078125,0.5126953125q0,3.6298828125,0.05126953125,7.21875t0.09228515625,7.24951171875l0,0.0205078125q-0.33837890625,0.29736328125-0.579345703125,0.37939453125t-0.487060546875,0.08203125q-0.23583984375,0-0.476806640625-0.087158203125t-0.579345703125-0.374267578125l0-0.0205078125l0.08203125-8.04931640625q0-0.7998046875-0.0205078125-1.763671875t-0.0205078125-1.953369140625t0.03076171875-1.912353515625t0.1640625-1.60986328125q-0.60498046875,0.0615234375-1.28173828125,0.1845703125q-0.58447265625,0.1025390625-1.11767578125,0.1025390625l-0.1845703125,0q-0.041015625,0-0.240966796875,0.01025390625t-0.41015625-0.01025390625t-0.37939453125-0.08203125t-0.169189453125-0.205078125z M10.137729492187,25.095703125q0-0.7177734375,0.158935546875-1.69189453125t0.538330078125-1.845703125t0.999755859375-1.481689453125t1.563720703125-0.610107421875q0.8818359375,0,1.32275390625,0.507568359375t0.44091796875,1.368896484375q0,0.56396484375-0.210205078125,1.235595703125t-0.599853515625,1.271484375t-0.9228515625,0.999755859375t-1.189453125,0.39990234375l-0.2666015625-0.0205078125q0,0.27685546875,0.08203125,0.743408203125t0.240966796875,0.927978515625t0.41015625,0.81005859375t0.610107421875,0.3486328125q0.52294921875,0,1.0048828125-0.42041015625t0.91259765625-0.93310546875t0.7998046875-0.93310546875t0.6767578125-0.42041015625q0.1640625,0,0.33837890625,0.05126953125t0.19482421875,0.287109375q0,0.1435546875-0.076904296875,0.23583984375t-0.138427734375,0.205078125q-0.31787109375,0.54345703125-0.692138671875,1.03564453125t-0.845947265625,0.89208984375t-1.030517578125,0.630615234375t-1.235595703125,0.230712890625q-0.8818359375,0-1.46630859375-0.312744140625t-0.943359375-0.8408203125t-0.517822265625-1.22021484375t-0.158935546875-1.450927734375z M11.973178710937,24.31640625l0.287109375,0.25634765625q0.205078125,0.1845703125,0.41015625,0.08203125t0.369140625-0.374267578125t0.302490234375-0.671630859375t0.24609375-0.8203125t0.158935546875-0.8203125t0.05126953125-0.66650390625l0-0.3486328125t-0.03076171875-0.369140625t-0.107666015625-0.292236328125t-0.240966796875-0.148681640625q-0.05126953125-0.01025390625-0.09228515625-0.01025390625q-0.3486328125,0-0.5947265625,0.44091796875q-0.2666015625,0.4921875-0.4306640625,1.194580078125t-0.23583984375,1.440673828125t-0.09228515625,1.107421875z M18.706611328125,24.47021484375q0-0.73828125,0.189697265625-1.481689453125t0.589599609375-1.3330078125t1.020263671875-0.958740234375t1.461181640625-0.369140625q0.35888671875,0,0.78955078125,0.087158203125t0.794677734375,0.27685546875t0.615234375,0.4921875t0.251220703125,0.743408203125q0,0.27685546875-0.1435546875,0.369140625t-0.37939453125,0.09228515625l-0.07177734375-0.1025390625t-0.199951171875-0.261474609375t-0.271728515625-0.33837890625t-0.27685546875-0.302490234375q-0.42041015625-0.42041015625-0.78955078125-0.451171875l-0.08203125,0q-0.3076171875,0-0.57421875,0.1845703125q-0.29736328125,0.2255859375-0.528076171875,0.6357421875t-0.384521484375,0.87158203125t-0.240966796875,0.93310546875t-0.087158203125,0.779296875q0,0.42041015625,0.097412109375,0.958740234375t0.328125,1.020263671875t0.58447265625,0.81005859375t0.907470703125,0.328125q0.50244140625,0,0.91259765625-0.24609375t0.784423828125-0.548583984375t0.733154296875-0.54345703125t0.73828125-0.240966796875q0.1640625,0,0.333251953125,0.041015625t0.169189453125,0.21533203125l0,0.0615234375q-0.1845703125,0.48193359375-0.62548828125,0.85107421875t-0.989501953125,0.640869140625t-1.13818359375,0.405029296875t-1.051025390625,0.13330078125q-0.861328125,0-1.512451171875-0.281982421875t-1.081787109375-0.774169921875t-0.651123046875-1.184326171875t-0.220458984375-1.512451171875z M27.654887695312,25.79296875l0-0.9638671875q0-0.52294921875,0.025634765625-1.481689453125t0.066650390625-2.10205078125t0.11279296875-2.384033203125t0.1640625-2.343017578125t0.220458984375-1.973876953125t0.292236328125-1.2919921875q0.1025390625-0.23583984375,0.33837890625-0.29736328125t0.46142578125-0.0615234375q0.35888671875,0,0.630615234375,0.158935546875t0.271728515625,0.579345703125l-0.1845703125,0.205078125q-0.35888671875,2.36865234375-0.46142578125,4.7578125t-0.1435546875,4.7783203125q0.25634765625-0.39990234375,0.579345703125-0.784423828125t0.7177734375-0.681884765625t0.85107421875-0.476806640625t0.999755859375-0.179443359375q0.697265625,0,1.153564453125,0.42041015625t0.753662109375,1.092041015625t0.44091796875,1.502197265625t0.220458984375,1.6611328125t0.107666015625,1.573974609375t0.09228515625,1.235595703125q-0.19482421875,0.2666015625-0.57421875,0.2666015625l-0.03076171875,0q-0.1640625,0-0.35888671875-0.041015625t-0.25634765625-0.205078125l0.0205078125,0.0205078125q-0.1435546875-0.31787109375-0.19482421875-0.917724609375t-0.08203125-1.32275390625t-0.107666015625-1.481689453125t-0.230712890625-1.3740234375t-0.451171875-1.01513671875t-0.7998046875-0.42041015625l-0.0615234375,0q-0.60498046875,0-1.01513671875,0.369140625q-0.4306640625,0.3896484375-0.697265625,1.025390625t-0.41015625,1.4150390625t-0.220458984375,1.502197265625t-0.117919921875,1.3125t-0.1025390625,0.866455078125q-0.0615234375,0.23583984375-0.364013671875,0.312744140625t-0.517822265625,0.076904296875q-0.50244140625,0-0.8203125-0.287109375q-0.23583984375-0.56396484375-0.27685546875-1.40478515625t-0.041015625-1.640625z M41.485766601563,14.026611328125q-0.025634765625-0.312744140625,0.041015625-0.54345703125t0.2666015625-0.37939453125t0.640869140625-0.148681640625l1.65087890625,0q0.33837890625,0,0.886962890625,0.035888671875t1.17919921875,0.107666015625t1.256103515625,0.220458984375t1.143310546875,0.369140625t0.8408203125,0.54345703125t0.322998046875,0.763916015625q0,0.62548828125-0.364013671875,1.174072265625t-0.91259765625,0.989501953125t-1.15869140625,0.784423828125t-1.092041015625,0.620361328125q1.9072265625,0.42041015625,2.98388671875,1.7431640625t1.07666015625,3.3017578125q0,1.0458984375-0.39990234375,2.066162109375t-1.092041015625,1.840576171875t-1.640625,1.32275390625t-2.035400390625,0.50244140625q-0.1435546875,0-0.322998046875-0.03076171875t-0.328125-0.097412109375t-0.25634765625-0.189697265625t-0.107666015625-0.31787109375q0-0.90234375,0.97412109375-0.90234375q0.1640625,0,0.384521484375,0.046142578125t0.343505859375,0.189697265625q0.56396484375-0.23583984375,1.030517578125-0.74853515625t0.78955078125-1.143310546875t0.50244140625-1.32275390625t0.179443359375-1.256103515625q0-0.6767578125-0.199951171875-1.379150390625t-0.579345703125-1.30224609375t-0.93310546875-1.010009765625t-1.271484375-0.5126953125q-0.1845703125-0.0205078125-0.405029296875-0.03076171875l-0.44091796875-0.0205078125t-0.4306640625-0.0615234375t-0.364013671875-0.1640625q0.08203125,1.7021484375,0.210205078125,3.39404296875t0.343505859375,3.39404296875q0.08203125,0.08203125,0.11279296875,0.240966796875t0.05126953125,0.33837890625t0.0205078125,0.343505859375l0,0.27685546875q0,0.1845703125-0.123046875,0.302490234375t-0.292236328125,0.189697265625t-0.35888671875,0.09228515625t-0.333251953125,0.0205078125q-0.46142578125,0-0.70751953125-0.123046875t-0.3486328125-0.35888671875t-0.13330078125-0.538330078125t-0.05126953125-0.661376953125q-0.27685546875-2.86083984375-0.39990234375-5.66015625t-0.123046875-5.66015625q0-0.33837890625-0.025634765625-0.651123046875z M43.377612304688,13.5908203125q0,1.26123046875,0.08203125,2.527587890625t0.1435546875,2.527587890625q0.46142578125-0.27685546875,1.2099609375-0.651123046875t1.450927734375-0.825439453125t1.204833984375-0.99462890625t0.50244140625-1.17919921875q0-0.50244140625-0.5947265625-0.763916015625t-1.38427734375-0.3896484375t-1.543212890625-0.158935546875t-1.071533203125-0.09228515625z M52.336142578125,28.3154296875q0-0.29736328125,0.025634765625-0.62548828125t0.046142578125-0.615234375l0.0615234375-1.5380859375q0.1025390625-1.845703125,0.251220703125-3.6298828125t0.251220703125-3.609375q0.0615234375-1.0048828125,0.09228515625-1.973876953125t0.09228515625-1.973876953125q-0.041015625-0.08203125-0.041015625-0.11279296875q0-0.1435546875,0.107666015625-0.2255859375t0.251220703125-0.138427734375t0.302490234375-0.076904296875t0.240966796875-0.0205078125l0.23583984375,0q0.31787109375,0.041015625,0.46142578125,0.199951171875t0.1845703125,0.37939453125t0.0205078125,0.4716796875t-0.0205078125,0.466552734375q0,1.48681640625-0.07177734375,3.030029296875t-0.1640625,3.0966796875t-0.169189453125,3.10693359375t-0.076904296875,3.071044921875l0,0.7177734375q0,0.48193359375-0.271728515625,0.6357421875t-0.753662109375,0.15380859375q-0.42041015625,0-0.73828125-0.1845703125t-0.31787109375-0.60498046875z M56.834223632813,24.8701171875q0-0.58447265625,0.148681640625-1.204833984375t0.4716796875-1.11767578125t0.815185546875-0.81005859375t1.189453125-0.312744140625q0.52294921875,0,1.102294921875,0.179443359375t1.061279296875,0.5126953125t0.784423828125,0.815185546875t0.302490234375,1.07666015625q0,0.7177734375-0.261474609375,1.36376953125t-0.733154296875,1.153564453125t-1.102294921875,0.7998046875t-1.368896484375,0.292236328125q-0.60498046875,0-1.05615234375-0.220458984375t-0.753662109375-0.589599609375t-0.451171875-0.87158203125t-0.148681640625-1.06640625z M58.341547851563,24.849609375q0,0.1845703125,0.056396484375,0.54345703125t0.169189453125,0.702392578125t0.292236328125,0.5947265625t0.435791015625,0.230712890625q0.54345703125-0.0615234375,0.897216796875-0.353759765625t0.57421875-0.712646484375t0.3076171875-0.91259765625t0.087158203125-0.93310546875q0-0.56396484375-0.220458984375-0.943359375t-0.722900390625-0.615234375q0,0.0205078125,0.0205078125,0.0205078125t0.0205078125-0.0205078125l-0.25634765625-0.0615234375q-0.1025390625-0.041015625-0.251220703125-0.09228515625t-0.292236328125-0.2255859375q-0.39990234375,0.1435546875-0.620361328125,0.369140625t-0.333251953125,0.548583984375t-0.138427734375,0.774169921875t-0.025634765625,1.0869140625z M64.60330078125,24.31640625q0-0.56396484375,0.107666015625-1.204833984375t0.369140625-1.174072265625t0.722900390625-0.8818359375t1.17919921875-0.3486328125q0.48193359375,0,0.93310546875,0.158935546875t0.85107421875,0.435791015625q0.123046875-0.205078125,0.3896484375-0.251220703125t0.4716796875-0.046142578125q0.08203125,0,0.230712890625,0.01025390625t0.292236328125,0.0615234375t0.251220703125,0.123046875t0.128173828125,0.205078125q0.08203125,0.7177734375,0.11279296875,1.430419921875t0.09228515625,1.420166015625q0.1025390625,1.32275390625,0.31787109375,2.61474609375t0.21533203125,2.61474609375q0,0.62548828125-0.056396484375,1.353515625t-0.29736328125,1.348388671875t-0.702392578125,1.030517578125t-1.28173828125,0.41015625q-0.73828125,0-1.133056640625-0.261474609375t-0.712646484375-0.876708984375q0.0205078125-0.205078125,0.261474609375-0.271728515625t0.415283203125-0.066650390625q0.1640625,0,0.333251953125,0.03076171875t0.271728515625,0.1025390625l0.25634765625,0.1640625q0.37939453125-0.779296875,0.46142578125-1.7021484375t0.08203125-1.7841796875q0-0.7177734375-0.07177734375-1.420166015625t-0.1435546875-1.409912109375q-0.7177734375,1.30224609375-2.18408203125,1.30224609375q-0.6767578125,0-1.102294921875-0.287109375t-0.65625-0.72802734375t-0.31787109375-0.99462890625t-0.087158203125-1.107421875z M65.86453125,24.40869140625q0,0.25634765625,0.0205078125,0.661376953125t0.107666015625,0.794677734375t0.251220703125,0.671630859375t0.46142578125,0.281982421875q0.56396484375,0,0.89208984375-0.44091796875t0.517822265625-1.051025390625t0.302490234375-1.26123046875t0.287109375-1.071533203125q-0.0205078125-0.1435546875-0.0205078125-0.281982421875l0-0.281982421875q-0.23583984375-0.44091796875-0.68701171875-0.763916015625t-0.93310546875-0.435791015625q-0.0615234375-0.01025390625-0.11279296875-0.01025390625q-0.287109375,0-0.4716796875,0.33837890625q-0.23583984375,0.41015625-0.369140625,0.979248046875t-0.189697265625,1.122802734375t-0.056396484375,0.74853515625z"/><path fill="#" d=""/></svg>
