<?xml version="1.0"?>
<svg version="1.1" xmlns="http://www.w3.org/2000/svg" width="62px" height="36px" style=""><path fill="#fb9900" d="M0,14.8828125q0-0.109375,0.15234375-0.16796875t0.19921875-0.05859375l0.2890625-0.046875q0.2890625-0.046875,0.5859375-0.08203125t0.578125-0.06640625q0.9921875-0.125,1.984375-0.24609375t2-0.12109375q0.078125,0,0.21484375,0.0078125t0.2734375,0.04296875t0.234375,0.09765625t0.09765625,0.171875q0,0.078125-0.07421875,0.13671875t-0.17578125,0.08984375t-0.20703125,0.0390625t-0.16796875,0.0078125l-0.13671875,0t-0.13671875-0.03125q-0.4140625,0-0.81640625,0.0390625t-0.81640625,0.0703125q0.109375,0.125,0.1171875,0.3515625t0.015625,0.390625q0,2.765625,0.0390625,5.5t0.0703125,5.5234375l0,0.015625q-0.2578125,0.2265625-0.44140625,0.2890625t-0.37109375,0.0625q-0.1796875,0-0.36328125-0.06640625t-0.44140625-0.28515625l0-0.015625l0.0625-6.1328125q0-0.609375-0.015625-1.34375t-0.015625-1.48828125t0.0234375-1.45703125t0.125-1.2265625q-0.4609375,0.046875-0.9765625,0.140625q-0.4453125,0.078125-0.8515625,0.078125l-0.140625,0q-0.03125,0-0.18359375,0.0078125t-0.3125-0.0078125t-0.2890625-0.0625t-0.12890625-0.15625z M7.723984375,23.40625q0-0.546875,0.12109375-1.2890625t0.41015625-1.40625t0.76171875-1.12890625t1.19140625-0.46484375q0.671875,0,1.0078125,0.38671875t0.3359375,1.04296875q0,0.4296875-0.16015625,0.94140625t-0.45703125,0.96875t-0.703125,0.76171875t-0.90625,0.3046875l-0.203125-0.015625q0,0.2109375,0.0625,0.56640625t0.18359375,0.70703125t0.3125,0.6171875t0.46484375,0.265625q0.3984375,0,0.765625-0.3203125t0.6953125-0.7109375t0.609375-0.7109375t0.515625-0.3203125q0.125,0,0.2578125,0.0390625t0.1484375,0.21875q0,0.109375-0.05859375,0.1796875t-0.10546875,0.15625q-0.2421875,0.4140625-0.52734375,0.7890625t-0.64453125,0.6796875t-0.78515625,0.48046875t-0.94140625,0.17578125q-0.671875,0-1.1171875-0.23828125t-0.71875-0.640625t-0.39453125-0.9296875t-0.12109375-1.10546875z M9.122421875,22.8125l0.21875,0.1953125q0.15625,0.140625,0.3125,0.0625t0.28125-0.28515625t0.23046875-0.51171875t0.1875-0.625t0.12109375-0.625t0.0390625-0.5078125l0-0.265625t-0.0234375-0.28125t-0.08203125-0.22265625t-0.18359375-0.11328125q-0.0390625-0.0078125-0.0703125-0.0078125q-0.265625,0-0.453125,0.3359375q-0.203125,0.375-0.328125,0.91015625t-0.1796875,1.09765625t-0.0703125,0.84375z M14.25265625,22.9296875q0-0.5625,0.14453125-1.12890625t0.44921875-1.015625t0.77734375-0.73046875t1.11328125-0.28125q0.2734375,0,0.6015625,0.06640625t0.60546875,0.2109375t0.46875,0.375t0.19140625,0.56640625q0,0.2109375-0.109375,0.28125t-0.2890625,0.0703125l-0.0546875-0.078125t-0.15234375-0.19921875t-0.20703125-0.2578125t-0.2109375-0.23046875q-0.3203125-0.3203125-0.6015625-0.34375l-0.0625,0q-0.234375,0-0.4375,0.140625q-0.2265625,0.171875-0.40234375,0.484375t-0.29296875,0.6640625t-0.18359375,0.7109375t-0.06640625,0.59375q0,0.3203125,0.07421875,0.73046875t0.25,0.77734375t0.4453125,0.6171875t0.69140625,0.25q0.3828125,0,0.6953125-0.1875t0.59765625-0.41796875t0.55859375-0.4140625t0.5625-0.18359375q0.125,0,0.25390625,0.03125t0.12890625,0.1640625l0,0.046875q-0.140625,0.3671875-0.4765625,0.6484375t-0.75390625,0.48828125t-0.8671875,0.30859375t-0.80078125,0.1015625q-0.65625,0-1.15234375-0.21484375t-0.82421875-0.58984375t-0.49609375-0.90234375t-0.16796875-1.15234375z M21.070390625,23.9375l0-0.734375q0-0.3984375,0.01953125-1.12890625t0.05078125-1.6015625t0.0859375-1.81640625t0.125-1.78515625t0.16796875-1.50390625t0.22265625-0.984375q0.078125-0.1796875,0.2578125-0.2265625t0.3515625-0.046875q0.2734375,0,0.48046875,0.12109375t0.20703125,0.44140625l-0.140625,0.15625q-0.2734375,1.8046875-0.3515625,3.625t-0.109375,3.640625q0.1953125-0.3046875,0.44140625-0.59765625t0.546875-0.51953125t0.6484375-0.36328125t0.76171875-0.13671875q0.53125,0,0.87890625,0.3203125t0.57421875,0.83203125t0.3359375,1.14453125t0.16796875,1.265625t0.08203125,1.19921875t0.0703125,0.94140625q-0.1484375,0.203125-0.4375,0.203125l-0.0234375,0q-0.125,0-0.2734375-0.03125t-0.1953125-0.15625l0.015625,0.015625q-0.109375-0.2421875-0.1484375-0.69921875t-0.0625-1.0078125t-0.08203125-1.12890625t-0.17578125-1.046875t-0.34375-0.7734375t-0.609375-0.3203125l-0.046875,0q-0.4609375,0-0.7734375,0.28125q-0.328125,0.296875-0.53125,0.78125t-0.3125,1.078125t-0.16796875,1.14453125t-0.08984375,1t-0.078125,0.66015625q-0.046875,0.1796875-0.27734375,0.23828125t-0.39453125,0.05859375q-0.3828125,0-0.625-0.21875q-0.1796875-0.4296875-0.2109375-1.0703125t-0.03125-1.25z M31.608203125,14.97265625q-0.01953125-0.23828125,0.03125-0.4140625t0.203125-0.2890625t0.48828125-0.11328125l1.2578125,0q0.2578125,0,0.67578125,0.02734375t0.8984375,0.08203125t0.95703125,0.16796875t0.87109375,0.28125t0.640625,0.4140625t0.24609375,0.58203125q0,0.4765625-0.27734375,0.89453125t-0.6953125,0.75390625t-0.8828125,0.59765625t-0.83203125,0.47265625q1.453125,0.3203125,2.2734375,1.328125t0.8203125,2.515625q0,0.796875-0.3046875,1.57421875t-0.83203125,1.40234375t-1.25,1.0078125t-1.55078125,0.3828125q-0.109375,0-0.24609375-0.0234375t-0.25-0.07421875t-0.1953125-0.14453125t-0.08203125-0.2421875q0-0.6875,0.7421875-0.6875q0.125,0,0.29296875,0.03515625t0.26171875,0.14453125q0.4296875-0.1796875,0.78515625-0.5703125t0.6015625-0.87109375t0.3828125-1.0078125t0.13671875-0.95703125q0-0.515625-0.15234375-1.05078125t-0.44140625-0.9921875t-0.7109375-0.76953125t-0.96875-0.390625q-0.140625-0.015625-0.30859375-0.0234375l-0.3359375-0.015625t-0.328125-0.046875t-0.27734375-0.125q0.0625,1.296875,0.16015625,2.5859375t0.26171875,2.5859375q0.0625,0.0625,0.0859375,0.18359375t0.0390625,0.2578125t0.015625,0.26171875l0,0.2109375q0,0.140625-0.09375,0.23046875t-0.22265625,0.14453125t-0.2734375,0.0703125t-0.25390625,0.015625q-0.3515625,0-0.5390625-0.09375t-0.265625-0.2734375t-0.1015625-0.41015625t-0.0390625-0.50390625q-0.2109375-2.1796875-0.3046875-4.3125t-0.09375-4.3125q0-0.2578125-0.01953125-0.49609375z M33.049609375,14.640625q0,0.9609375,0.0625,1.92578125t0.109375,1.92578125q0.3515625-0.2109375,0.921875-0.49609375t1.10546875-0.62890625t0.91796875-0.7578125t0.3828125-0.8984375q0-0.3828125-0.453125-0.58203125t-1.0546875-0.296875t-1.17578125-0.12109375t-0.81640625-0.0703125z M39.87515625,25.859375q0-0.2265625,0.01953125-0.4765625t0.03515625-0.46875l0.046875-1.171875q0.078125-1.40625,0.19140625-2.765625t0.19140625-2.75q0.046875-0.765625,0.0703125-1.50390625t0.0703125-1.50390625q-0.03125-0.0625-0.03125-0.0859375q0-0.109375,0.08203125-0.171875t0.19140625-0.10546875t0.23046875-0.05859375t0.18359375-0.015625l0.1796875,0q0.2421875,0.03125,0.3515625,0.15234375t0.140625,0.2890625t0.015625,0.359375t-0.015625,0.35546875q0,1.1328125-0.0546875,2.30859375t-0.125,2.359375t-0.12890625,2.3671875t-0.05859375,2.33984375l0,0.546875q0,0.3671875-0.20703125,0.484375t-0.57421875,0.1171875q-0.3203125,0-0.5625-0.140625t-0.2421875-0.4609375z M43.302265625,23.234375q0-0.4453125,0.11328125-0.91796875t0.359375-0.8515625t0.62109375-0.6171875t0.90625-0.23828125q0.3984375,0,0.83984375,0.13671875t0.80859375,0.390625t0.59765625,0.62109375t0.23046875,0.8203125q0,0.546875-0.19921875,1.0390625t-0.55859375,0.87890625t-0.83984375,0.609375t-1.04296875,0.22265625q-0.4609375,0-0.8046875-0.16796875t-0.57421875-0.44921875t-0.34375-0.6640625t-0.11328125-0.8125z M44.450703125,23.21875q0,0.140625,0.04296875,0.4140625t0.12890625,0.53515625t0.22265625,0.453125t0.33203125,0.17578125q0.4140625-0.046875,0.68359375-0.26953125t0.4375-0.54296875t0.234375-0.6953125t0.06640625-0.7109375q0-0.4296875-0.16796875-0.71875t-0.55078125-0.46875q0,0.015625,0.015625,0.015625t0.015625-0.015625l-0.1953125-0.046875q-0.078125-0.03125-0.19140625-0.0703125t-0.22265625-0.171875q-0.3046875,0.109375-0.47265625,0.28125t-0.25390625,0.41796875t-0.10546875,0.58984375t-0.01953125,0.828125z M49.2215625,22.8125q0-0.4296875,0.08203125-0.91796875t0.28125-0.89453125t0.55078125-0.671875t0.8984375-0.265625q0.3671875,0,0.7109375,0.12109375t0.6484375,0.33203125q0.09375-0.15625,0.296875-0.19140625t0.359375-0.03515625q0.0625,0,0.17578125,0.0078125t0.22265625,0.046875t0.19140625,0.09375t0.09765625,0.15625q0.0625,0.546875,0.0859375,1.08984375t0.0703125,1.08203125q0.078125,1.0078125,0.2421875,1.9921875t0.1640625,1.9921875q0,0.4765625-0.04296875,1.03125t-0.2265625,1.02734375t-0.53515625,0.78515625t-0.9765625,0.3125q-0.5625,0-0.86328125-0.19921875t-0.54296875-0.66796875q0.015625-0.15625,0.19921875-0.20703125t0.31640625-0.05078125q0.125,0,0.25390625,0.0234375t0.20703125,0.078125l0.1953125,0.125q0.2890625-0.59375,0.3515625-1.296875t0.0625-1.359375q0-0.546875-0.0546875-1.08203125t-0.109375-1.07421875q-0.546875,0.9921875-1.6640625,0.9921875q-0.515625,0-0.83984375-0.21875t-0.5-0.5546875t-0.2421875-0.7578125t-0.06640625-0.84375z M50.1825,22.8828125q0,0.1953125,0.015625,0.50390625t0.08203125,0.60546875t0.19140625,0.51171875t0.3515625,0.21484375q0.4296875,0,0.6796875-0.3359375t0.39453125-0.80078125t0.23046875-0.9609375t0.21875-0.81640625q-0.015625-0.109375-0.015625-0.21484375l0-0.21484375q-0.1796875-0.3359375-0.5234375-0.58203125t-0.7109375-0.33203125q-0.046875-0.0078125-0.0859375-0.0078125q-0.21875,0-0.359375,0.2578125q-0.1796875,0.3125-0.28125,0.74609375t-0.14453125,0.85546875t-0.04296875,0.5703125z"/><path fill="#" d=""/></svg>
